<?xml version="1.0" encoding="UTF-8"?><svg id="f" xmlns="http://www.w3.org/2000/svg" xmlns:xlink="http://www.w3.org/1999/xlink" viewBox="0 0 945 420"><defs><style>.h{fill:url(#c);}.i{fill:url(#g);}.j{fill:#606;}</style><symbol id="a" viewBox="0 0 381.934 95.412"><path class="j" d="M0,47.838C0,19.636,16.868,0,44.939,0c22.404,0,37.559,11.728,40.985,32.155h-20.295c-2.108-9.753-9.356-15.419-20.953-15.419-16.342,0-25.961,11.861-25.961,31.101s9.619,30.969,25.961,30.969c11.597,0,18.713-5.139,20.822-14.496h20.295c-3.295,19.504-18.45,31.101-40.854,31.101C16.868,95.412,0,76.039,0,47.838Z"/><path class="j" d="M166.545,61.148c0-19.899,14.233-34.263,34.528-34.263,16.868,0,29.257,9.356,32.551,25.038h-19.504c-1.581-5.667-6.721-9.225-13.178-9.225-8.83,0-15.551,6.985-15.551,18.45s6.722,18.582,15.551,18.582c6.457,0,11.597-3.426,13.178-9.357h19.504c-3.162,15.156-15.682,25.039-32.551,25.039-20.295,0-34.528-14.233-34.528-34.264Z"/><path class="j" d="M241.662,1.328h18.449v36.757c4.218-6.853,11.862-11.201,21.613-11.201,16.342,0,25.435,10.806,25.435,30.442v36.511h-18.318v-34.797c0-10.674-3.954-16.605-13.311-16.605-8.961,0-15.419,6.589-15.419,17.659v33.743h-18.449V1.328Z"/><path class="j" d="M314.329,61.807c0-20.296,13.705-34.923,34.396-34.923,19.504,0,33.209,13.838,33.209,32.419,0,1.845,0,4.085-.263,6.326h-49.024c.659,8.961,7.116,14.759,15.946,14.759,6.063,0,10.411-3.031,12.651-7.38h18.845c-3.822,12.651-15.682,22.404-31.365,22.404-20.295,0-34.396-13.705-34.396-33.605ZM333.042,54.558h30.178c-.527-7.643-6.457-12.782-14.364-12.782-7.643,0-13.97,4.217-15.814,12.782Z"/><path class="j" d="M0,47.838C0,19.636,16.868,0,44.939,0c22.404,0,37.559,11.728,40.985,32.155h-20.295c-2.108-9.753-9.356-15.419-20.953-15.419-16.342,0-25.961,11.861-25.961,31.101s9.619,30.969,25.961,30.969c11.597,0,18.713-5.139,20.822-14.496h20.295c-3.295,19.504-18.45,31.101-40.854,31.101C16.868,95.412,0,76.039,0,47.838Z"/><path class="j" d="M90.162,61.017c0-19.636,11.597-34.132,30.838-34.132,8.83,0,16.21,4.217,20.69,11.201v-9.874h17.659v65.626h-17.659v-10.022c-3.954,6.062-10.674,11.597-20.69,11.597-19.241,0-30.838-14.76-30.838-34.396ZM141.427,61.148c0-11.465-7.248-18.186-16.21-18.186-8.83,0-16.21,6.721-16.21,18.055s7.38,18.318,16.21,18.318c8.962,0,16.21-6.722,16.21-18.187Z"/></symbol><linearGradient id="c" x1="115.893" y1="4.536" x2="93.267" y2="13.586" gradientUnits="userSpaceOnUse"><stop offset="0" stop-color="#606" stop-opacity=".5"/><stop offset="1" stop-color="#606"/></linearGradient><symbol id="b" viewBox="0 0 287.291 122.185"><path class="j" d="M0,0h19.636l25.171,73.404L70.109,0h19.504l-33.474,92.509h-22.666L0,0Z"/><rect class="j" x="92.808" y="26.883" width="18.449" height="65.626"/><path class="j" d="M122.373,26.883h18.45v9.62c4.216-6.853,11.596-11.201,21.48-11.201,16.473,0,25.567,10.806,25.567,30.442v36.764h-18.45v-35.051c0-10.674-4.085-16.605-13.442-16.605-8.83,0-15.155,6.589-15.155,17.659v33.997h-18.45V26.883Z"/><path class="j" d="M187.87,107.531h16.142c3.993,0,6.13-1.444,8.897-7.771l3.031-7.252-27.148-65.626h20.032l17.396,44.543,18.055-44.543h19.767l-35.005,80.108c-5.591,13.318-9.178,15.194-18.362,15.194h-22.804v-14.654Z"/><path class="j" d="M268.841,0h18.45v92.509h-18.45V0Z"/><path class="h" d="M97.086,0c-2.852,5.729-4.278,12.123-4.278,18.449h18.448c0-6.326,1.425-12.72,4.278-18.449h-18.448Z"/></symbol><linearGradient id="g" x1="428.47" y1="165.615" x2="214.273" y2="251.288" gradientUnits="userSpaceOnUse"><stop offset="0" stop-color="#606" stop-opacity=".25"/><stop offset=".275" stop-color="#606" stop-opacity=".288"/><stop offset=".542" stop-color="#606" stop-opacity=".402"/><stop offset=".69" stop-color="#606" stop-opacity=".5"/><stop offset=".77" stop-color="#606" stop-opacity=".6"/><stop offset="1" stop-color="#606" stop-opacity=".75"/></linearGradient></defs><path class="i" d="M420,110c-53.293,34.767-84.406,93.307-85,155-.143,14.876,1.476,30.067,5,45h-125c-3.524-14.933-5.143-30.124-5-45,.594-61.693,31.707-120.233,85-155h125Z"/><path class="j" d="M244.449,158.623l-19.449-48.623h-125l80,200h35c-3.524-14.933-5.143-30.125-5-45,.369-38.325,12.524-75.429,34.449-106.377Z"/><use width="287.291" height="122.185" transform="translate(460 110)" xlink:href="#b"/><use width="381.934" height="95.412" transform="translate(461.845 216.172)" xlink:href="#a"/></svg>